# xmcd CD database file
#
# Track frame offsets:
#	150
#	12294
#	27870
#	35506
#	46640
#	60768
#	66136
#
# Disc length: 1381 seconds
#
# Revision: 0
# Processed by: cddbd v1.5.2PL0 Copyright (c) Steve Scherf et al.
# Submitted via: CDex 1.70beta2
#
DISCID=48056307
DTITLE=Sonny Clark - LA Session 1956/1957
DYEAR=1957
DGENRE=Jazz
TTITLE0=Now I Lay Me Down To Dream
TTITLE1=That's All
TTITLE2=Isn't This A Lovely Way To Spend The Evening?
TTITLE3='Round Midnight
TTITLE4=Mambo Las Vegas
TTITLE5=When Sonny Gets Blues
TTITLE6=The Way You Look Tonight
EXTD=YEAR: 1957
EXTT0=
EXTT1=
EXTT2=
EXTT3=
EXTT4=
EXTT5=
EXTT6=
PLAYORDER=
